<svg width="100" height="100" viewBox="0 0 100 100" fill="none" xmlns="http://www.w3.org/2000/svg">
<path d="M21.7087 71.7087L17.0541 63.6467L14.6446 59.4734L12.059 54.995L9.17516 50L5.81682 44.1832L0 50L5.81682 55.8168L10.5662 60.5662L14.6446 64.6446L18.3013 68.3013L21.7087 71.7087Z" fill="#52525B"/>
<path d="M36.3534 82.9459L28.2913 78.2913L24.1181 75.8819L19.6397 73.2963L14.6446 70.4124L8.82783 67.0541L6.69872 75L14.6446 77.1291L21.1325 78.8675L26.7037 80.3603L31.6987 81.6987L36.3534 82.9459Z" fill="#52525B"/>
<path d="M54.6546 85.3553H45.3453H40.5266H35.3553H29.5876H22.8709L25 93.3013L32.9459 91.1722L39.4338 89.4337L45.005 87.941L50 86.6025L54.6546 85.3553Z" fill="#52525B"/>
<path d="M71.7087 78.2913L63.6467 82.9459L59.4734 85.3553L54.995 87.941L50 90.8248L44.1832 94.1832L50 100L55.8168 94.1832L60.5662 89.4338L64.6447 85.3553L68.3013 81.6987L71.7087 78.2913Z" fill="#52525B"/>
<path d="M82.9459 63.6466L78.2913 71.7087L75.8819 75.8819L73.2963 80.3603L70.4124 85.3553L67.0541 91.1722L75 93.3013L77.1291 85.3553L78.8675 78.8675L80.3603 73.2963L81.6987 68.3013L82.9459 63.6466Z" fill="#52525B"/>
<path d="M85.3553 45.3454V54.6546V59.4734V64.6447V70.4124V77.1291L93.3013 75L91.1722 67.0541L89.4337 60.5662L87.9409 54.995L86.6025 50L85.3553 45.3454Z" fill="#52525B"/>
<path d="M78.2913 28.2913L82.9459 36.3534L85.3553 40.5266L87.9409 45.005L90.8248 50L94.1832 55.8168L100 50L94.1832 44.1832L89.4337 39.4338L85.3553 35.3553L81.6987 31.6987L78.2913 28.2913Z" fill="#52525B"/>
<path d="M63.6467 17.0541L71.7087 21.7087L75.8819 24.1181L80.3603 26.7037L85.3553 29.5876L91.1722 32.9459L93.3013 25L85.3553 22.8709L78.8675 21.1325L73.2963 19.6397L68.3013 18.3013L63.6467 17.0541Z" fill="#52525B"/>
<path d="M45.3454 14.6447H54.6546H59.4734H64.6447H70.4124H77.1291L75 6.69872L67.0541 8.82783L60.5662 10.5662L54.995 12.059L50 13.3975L45.3454 14.6447Z" fill="#52525B"/>
<path d="M28.2913 21.7087L36.3534 17.0541L40.5266 14.6447L45.005 12.0591L50 9.17517L55.8168 5.81682L50 0L44.1832 5.81683L39.4337 10.5662L35.3553 14.6447L31.6987 18.3013L28.2913 21.7087Z" fill="#52525B"/>
<path d="M22.8709 14.6447L21.1325 21.1325L19.6397 26.7037L18.3013 31.6987L17.0541 36.3533L21.7087 28.2913L24.1181 24.1181L26.7037 19.6397L29.5876 14.6447L32.9459 8.82784L25 6.69874L22.8709 14.6447Z" fill="#52525B"/>
<path d="M14.6446 22.8709L6.69872 25L8.82783 32.9459L10.5662 39.4338L12.059 45.005L13.3974 50L14.6446 54.6546V45.3454V40.5266V35.3553V29.5876V22.8709Z" fill="#52525B"/>
</svg>
